<svg id="visual" viewBox="0 0 900 600" width="900" height="600" xmlns="http://www.w3.org/2000/svg" xmlns:xlink="http://www.w3.org/1999/xlink" version="1.1"><rect x="0" y="0" width="900" height="600" fill="#f4f4f4"></rect><defs><linearGradient id="grad1_0" x1="33.3%" y1="100%" x2="100%" y2="0%"><stop offset="20%" stop-color="#2e5aac" stop-opacity="1"></stop><stop offset="80%" stop-color="#2e5aac" stop-opacity="1"></stop></linearGradient></defs><defs><linearGradient id="grad1_1" x1="33.3%" y1="100%" x2="100%" y2="0%"><stop offset="20%" stop-color="#2e5aac" stop-opacity="1"></stop><stop offset="80%" stop-color="#f4f4f4" stop-opacity="1"></stop></linearGradient></defs><defs><linearGradient id="grad2_0" x1="0%" y1="100%" x2="66.7%" y2="0%"><stop offset="20%" stop-color="#2e5aac" stop-opacity="1"></stop><stop offset="80%" stop-color="#2e5aac" stop-opacity="1"></stop></linearGradient></defs><defs><linearGradient id="grad2_1" x1="0%" y1="100%" x2="66.7%" y2="0%"><stop offset="20%" stop-color="#f4f4f4" stop-opacity="1"></stop><stop offset="80%" stop-color="#2e5aac" stop-opacity="1"></stop></linearGradient></defs><g transform="translate(900, 600)"><path d="M-189.3 0C-178.5 -16.8 -167.7 -33.6 -163.6 -53.2C-159.5 -72.7 -162.1 -94.9 -153.1 -111.3C-144.2 -127.6 -123.8 -138 -105.2 -144.8C-86.6 -151.6 -69.8 -154.9 -52.5 -161.7C-35.3 -168.5 -17.6 -178.9 0 -189.3L0 0Z" fill="#9aa3d0"></path><path d="M-94.6 0C-89.2 -8.4 -83.8 -16.8 -81.8 -26.6C-79.7 -36.3 -81 -47.5 -76.6 -55.6C-72.1 -63.8 -61.9 -69 -52.6 -72.4C-43.3 -75.8 -34.9 -77.4 -26.3 -80.8C-17.6 -84.2 -8.8 -89.4 0 -94.6L0 0Z" fill="#2e5aac"></path></g><g transform="translate(0, 0)"><path d="M189.3 0C186.1 19.3 183 38.6 177.8 57.8C172.7 77 165.7 96 153.1 111.3C140.6 126.5 122.6 137.8 104.6 144C86.7 150.2 68.7 151.2 51.3 157.9C33.9 164.6 16.9 176.9 0 189.3L0 0Z" fill="#9aa3d0"></path><path d="M94.6 0C93.1 9.6 91.5 19.3 88.9 28.9C86.4 38.5 82.8 48 76.6 55.6C70.3 63.2 61.3 68.9 52.3 72C43.3 75.1 34.4 75.6 25.6 78.9C16.9 82.3 8.5 88.5 0 94.6L0 0Z" fill="#2e5aac"></path></g></svg>