<svg id="visual" viewBox="0 0 900 600" width="900" height="600" xmlns="http://www.w3.org/2000/svg" xmlns:xlink="http://www.w3.org/1999/xlink" version="1.1"><rect x="0" y="0" width="900" height="600" fill="#f4f4f4"></rect><defs><linearGradient id="grad1_0" x1="33.3%" y1="100%" x2="100%" y2="0%"><stop offset="20%" stop-color="#fbae3c" stop-opacity="1"></stop><stop offset="80%" stop-color="#fbae3c" stop-opacity="1"></stop></linearGradient></defs><defs><linearGradient id="grad1_1" x1="33.3%" y1="100%" x2="100%" y2="0%"><stop offset="20%" stop-color="#fbae3c" stop-opacity="1"></stop><stop offset="80%" stop-color="#f4f4f4" stop-opacity="1"></stop></linearGradient></defs><defs><linearGradient id="grad2_0" x1="0%" y1="100%" x2="66.7%" y2="0%"><stop offset="20%" stop-color="#fbae3c" stop-opacity="1"></stop><stop offset="80%" stop-color="#fbae3c" stop-opacity="1"></stop></linearGradient></defs><defs><linearGradient id="grad2_1" x1="0%" y1="100%" x2="66.7%" y2="0%"><stop offset="20%" stop-color="#f4f4f4" stop-opacity="1"></stop><stop offset="80%" stop-color="#fbae3c" stop-opacity="1"></stop></linearGradient></defs><g transform="translate(900, 600)"><path d="M-189.3 0C-190 -28 -190.7 -56 -174.9 -72.4C-159.1 -88.9 -126.9 -93.8 -107.5 -107.5C-88.1 -121.2 -81.6 -143.8 -65.8 -158.9C-50.1 -174 -25 -181.7 0 -189.3L0 0Z" fill="#ffd09a"></path><path d="M-94.6 0C-95 -14 -95.3 -28 -87.4 -36.2C-79.6 -44.4 -63.4 -46.9 -53.7 -53.7C-44.1 -60.6 -40.8 -71.9 -32.9 -79.5C-25 -87 -12.5 -90.8 0 -94.6L0 0Z" fill="#fbae3c"></path></g><g transform="translate(0, 0)"><path d="M189.3 0C188.4 26.2 187.5 52.4 174.9 72.4C162.2 92.4 137.8 106.2 117.4 117.4C96.9 128.6 80.5 137.2 61.6 148.7C42.7 160.3 21.4 174.8 0 189.3L0 0Z" fill="#ffd09a"></path><path d="M94.6 0C94.2 13.1 93.8 26.2 87.4 36.2C81.1 46.2 68.9 53.1 58.7 58.7C48.5 64.3 40.3 68.6 30.8 74.4C21.4 80.2 10.7 87.4 0 94.6L0 0Z" fill="#fbae3c"></path></g></svg>