<svg id="visual" viewBox="0 0 900 600" width="900" height="600" xmlns="http://www.w3.org/2000/svg" xmlns:xlink="http://www.w3.org/1999/xlink" version="1.1"><rect x="0" y="0" width="900" height="600" fill="#556B2F"></rect><path d="M0 529L30 526.2C60 523.3 120 517.7 180 504.8C240 492 300 472 360 464.5C420 457 480 462 540 472.3C600 482.7 660 498.3 720 495.5C780 492.7 840 471.3 870 460.7L900 450L900 601L870 601C840 601 780 601 720 601C660 601 600 601 540 601C480 601 420 601 360 601C300 601 240 601 180 601C120 601 60 601 30 601L0 601Z" fill="#4c5e28" stroke-linecap="round" stroke-linejoin="miter"></path></svg>