<svg id="visual" viewBox="0 0 900 450" width="900" height="450" xmlns="http://www.w3.org/2000/svg" xmlns:xlink="http://www.w3.org/1999/xlink" version="1.1"><rect x="0" y="0" width="900" height="450" fill="#4d6daa"></rect><path d="M0 122L21.5 129.5C43 137 86 152 128.8 156.8C171.7 161.7 214.3 156.3 257.2 145.7C300 135 343 119 385.8 119.2C428.7 119.3 471.3 135.7 514.2 142.3C557 149 600 146 642.8 137.8C685.7 129.7 728.3 116.3 771.2 116.5C814 116.7 857 130.3 878.5 137.2L900 144L900 0L878.5 0C857 0 814 0 771.2 0C728.3 0 685.7 0 642.8 0C600 0 557 0 514.2 0C471.3 0 428.7 0 385.8 0C343 0 300 0 257.2 0C214.3 0 171.7 0 128.8 0C86 0 43 0 21.5 0L0 0Z" fill="#2e5aac" stroke-linecap="round" stroke-linejoin="miter"></path></svg>